# xmcd
#
# Track frame offsets: 
#        150
#        18766
#        35294
#        59471
#        71487
#        80283
#        96771
#        113821
#        128835
#        144474
#        158765
#        199825
#        216057
#
# Disc length: 3334 seconds
#
# Revision: 0
# Processed by: cddbd v1.5.1PL0 Copyright (c) Steve Scherf et al.
# Submitted via: ExactAudioCopy v0.95b3
#
DISCID=a90d040d
DTITLE=Hot 'n' Nasty - Electrified
DYEAR=2005
DGENRE=Bluesrock
TTITLE0=Foolin' Around
TTITLE1=Can't Get Your Love
TTITLE2=Last Night
TTITLE3=Electrified
TTITLE4=Crossing The Desert
TTITLE5=Desert Stomp
TTITLE6=Shotgun
TTITLE7=See Who's Coming
TTITLE8=Hard Working Band (Live)
TTITLE9=Maybeline (Live)
TTITLE10=Hell To Pay (Live)
TTITLE11=Big Easy (Live)
TTITLE12=Going Down (Live)
EXTD=
EXTT0=
EXTT1=
EXTT2=
EXTT3=
EXTT4=
EXTT5=
EXTT6=
EXTT7=
EXTT8=
EXTT9=
EXTT10=
EXTT11=
EXTT12=
PLAYORDER=
